<svg width="25" height="24" viewBox="0 0 25 24" fill="none" xmlns="http://www.w3.org/2000/svg">
<path fill-rule="evenodd" clip-rule="evenodd" d="M9.13238 3.86982C10.7404 3.20376 12.5098 3.02949 14.2168 3.36904C15.9238 3.70859 17.4918 4.54671 18.7225 5.77742C19.9532 7.00812 20.7914 8.57613 21.1309 10.2832C21.4705 11.9902 21.2962 13.7596 20.6301 15.3676C19.9641 16.9756 18.8362 18.3499 17.389 19.3169C15.9419 20.2838 14.2405 20.8 12.5 20.8C11.2138 20.8 9.98876 20.5239 8.88439 20.0252C8.76668 19.972 8.65942 19.9631 8.57643 19.9801L6.44334 20.4178C5.0369 20.7064 3.7935 19.463 4.08213 18.0566L4.51986 15.9235C4.53689 15.8405 4.5279 15.7333 4.47475 15.6156C3.976 14.5114 3.7 13.2869 3.7 12C3.7 10.2595 4.21611 8.55809 5.18306 7.11094C6.15002 5.66378 7.52439 4.53587 9.13238 3.86982ZM13.9046 4.9383C12.508 4.66049 11.0603 4.80307 9.74467 5.34802C8.42905 5.89297 7.30456 6.81582 6.51342 7.99985C5.72227 9.18388 5.3 10.5759 5.3 12C5.3 13.0562 5.52616 14.0564 5.93291 14.957C6.10593 15.3401 6.18062 15.7899 6.0872 16.2452L5.64946 18.3782C5.59174 18.6595 5.84042 18.9082 6.12171 18.8505L8.25479 18.4128C8.71004 18.3193 9.15986 18.394 9.54292 18.567C10.4436 18.9738 11.4445 19.2 12.5 19.2C13.924 19.2 15.3161 18.7777 16.5001 17.9865C17.6841 17.1954 18.607 16.0709 19.1519 14.7553C19.6969 13.4396 19.8395 11.992 19.5616 10.5953C19.2838 9.19864 18.5981 7.91572 17.5912 6.90879C16.5842 5.90185 15.3013 5.21611 13.9046 4.9383Z" fill="#555555"/>
<path d="M9.70005 12C9.70005 12.6628 9.16279 13.2 8.50005 13.2C7.83731 13.2 7.30005 12.6628 7.30005 12C7.30005 11.3373 7.83731 10.8 8.50005 10.8C9.16279 10.8 9.70005 11.3373 9.70005 12Z" fill="#555555"/>
<path d="M13.7 12C13.7 12.6628 13.1627 13.2 12.5 13.2C11.8373 13.2 11.3 12.6628 11.3 12C11.3 11.3373 11.8373 10.8 12.5 10.8C13.1627 10.8 13.7 11.3373 13.7 12Z" fill="#555555"/>
<path d="M17.7 12C17.7 12.6628 17.1627 13.2 16.5 13.2C15.8373 13.2 15.3 12.6628 15.3 12C15.3 11.3373 15.8373 10.8 16.5 10.8C17.1627 10.8 17.7 11.3373 17.7 12Z" fill="#555555"/>
</svg>
