<svg width="22" height="22" viewBox="0 0 22 22" fill="none" xmlns="http://www.w3.org/2000/svg">
<path d="M10.7963 3.78432C10.9224 3.71154 11.0777 3.71154 11.2037 3.78432L17.1472 7.21577C17.2732 7.28854 17.3509 7.42304 17.3509 7.56859V14.4315C17.3509 14.577 17.2732 14.7115 17.1472 14.7843L11.2037 18.2158C11.0777 18.2885 10.9224 18.2885 10.7963 18.2158L4.85287 14.7843C4.72682 14.7115 4.64917 14.577 4.64917 14.4315L4.64917 7.56859C4.64917 7.42304 4.72682 7.28854 4.85287 7.21577L10.7963 3.78432Z" fill="#FFB800"/>
<path fill-rule="evenodd" clip-rule="evenodd" d="M11.9192 2.54511L17.8626 5.97656C18.4314 6.30494 18.7818 6.91182 18.7818 7.56858V14.4315C18.7818 15.0882 18.4314 15.6951 17.8626 16.0235L11.9192 19.4549C11.3504 19.7833 10.6496 19.7833 10.0809 19.4549L4.13741 16.0235C3.56864 15.6951 3.21826 15.0882 3.21826 14.4315L3.21826 7.56858C3.21826 6.91182 3.56864 6.30494 4.13741 5.97656L10.0809 2.54511C10.6496 2.21673 11.3504 2.21673 11.9192 2.54511ZM11.2037 3.7843C11.0777 3.71153 10.9224 3.71153 10.7963 3.7843L4.85286 7.21575C4.72681 7.28853 4.64916 7.42303 4.64916 7.56858L4.64916 14.4315C4.64916 14.577 4.72681 14.7115 4.85286 14.7843L10.7963 18.2158C10.9224 18.2885 11.0777 18.2885 11.2037 18.2158L17.1472 14.7843C17.2732 14.7115 17.3509 14.577 17.3509 14.4315V7.56858C17.3509 7.42303 17.2732 7.28853 17.1472 7.21575L11.2037 3.7843Z" fill="#755400"/>
<mask id="mask0_10528_5178" style="mask-type:alpha" maskUnits="userSpaceOnUse" x="4" y="3" width="14" height="16">
<path d="M10.7963 3.78432C10.9224 3.71154 11.0777 3.71154 11.2037 3.78432L17.1472 7.21577C17.2732 7.28854 17.3509 7.42304 17.3509 7.56859V14.4315C17.3509 14.577 17.2732 14.7115 17.1472 14.7843L11.2037 18.2158C11.0777 18.2885 10.9224 18.2885 10.7963 18.2158L4.85287 14.7843C4.72682 14.7115 4.64917 14.577 4.64917 14.4315L4.64917 7.56859C4.64917 7.42304 4.72682 7.28854 4.85287 7.21577L10.7963 3.78432Z" fill="#FFB800"/>
</mask>
<g mask="url(#mask0_10528_5178)">
<path d="M11.0001 6.9259V2.85181L17.926 7.00736L14.5278 8.96207L11.0001 6.9259Z" fill="#FFE91F"/>
<path d="M4.0741 6.92578L7.47231 8.96196V13.0377L4.0741 15.0739L4.0741 6.92578Z" fill="#E49700"/>
<path d="M11.0006 15.0756L7.4723 13.0369L3.66669 15.2369L11 18.7406L11.0006 15.0756Z" fill="#DF8600"/>
<path d="M11 6.92578L14.5282 8.96282V13.0369L11 15.0739L7.47174 13.0369V8.96282L11 6.92578Z" fill="url(#paint0_linear_10528_5178)"/>
<path d="M14.5277 8.96282L11 6.92578V8.46792L13.1927 9.73388L14.5277 8.96282Z" fill="white"/>
</g>
<path d="M5.70372 11.8149L6.25391 10.3281L7.74076 9.7779L6.25391 9.22772L5.70372 7.74087L5.15354 9.22772L3.66669 9.7779L5.15354 10.3281L5.70372 11.8149Z" fill="white"/>
<path d="M15.4815 16.7039L16.2517 14.6223L18.3333 13.852L16.2517 13.0817L15.4815 11.0002L14.7112 13.0817L12.6296 13.852L14.7112 14.6223L15.4815 16.7039Z" fill="white"/>
<defs>
<linearGradient id="paint0_linear_10528_5178" x1="11" y1="6.92578" x2="11" y2="15.0739" gradientUnits="userSpaceOnUse">
<stop stop-color="#FFF1CD"/>
<stop offset="0.5" stop-color="#FFC700"/>
</linearGradient>
</defs>
</svg>
