<svg width="22" height="22" viewBox="0 0 22 22" fill="none" xmlns="http://www.w3.org/2000/svg">
<path fill-rule="evenodd" clip-rule="evenodd" d="M4.70513 4.70513C5.1121 4.29816 5.77192 4.29816 6.17889 4.70513L10.9999 9.52614L15.8209 4.70513C16.2279 4.29816 16.8877 4.29816 17.2947 4.70513C17.7016 5.1121 17.7016 5.77192 17.2947 6.17889L12.4737 10.9999L17.2947 15.8209C17.7016 16.2279 17.7016 16.8877 17.2947 17.2947C16.8877 17.7016 16.2279 17.7016 15.8209 17.2947L10.9999 12.4737L6.17889 17.2947C5.77192 17.7016 5.1121 17.7016 4.70513 17.2947C4.29816 16.8877 4.29816 16.2279 4.70513 15.8209L9.52614 10.9999L4.70513 6.17889C4.29816 5.77192 4.29816 5.1121 4.70513 4.70513Z" fill="#0D97AA"/>
</svg>
