<svg width="25" height="24" viewBox="0 0 25 24" fill="none" xmlns="http://www.w3.org/2000/svg">
<path fill-rule="evenodd" clip-rule="evenodd" d="M12.5 21.2C17.5811 21.2 21.7 17.081 21.7 12C21.7 6.91897 17.5811 2.79999 12.5 2.79999C7.41903 2.79999 3.30005 6.91897 3.30005 12C3.30005 17.081 7.41903 21.2 12.5 21.2ZM17.417 10.5371C17.802 10.1412 17.7931 9.50806 17.3971 9.12306C17.0011 8.73806 16.368 8.74695 15.983 9.14292L11.6454 13.6041L9.01829 10.8918C8.63405 10.4951 8.00096 10.485 7.60426 10.8693C7.20756 11.2535 7.19746 11.8866 7.58171 12.2833L10.9258 15.7358C11.1139 15.93 11.3727 16.0398 11.6431 16.04C11.9135 16.0403 12.1725 15.931 12.361 15.7371L17.417 10.5371Z" fill="white"/>
</svg>
